<svg width="146" height="48" viewBox="0 0 146 48" fill="none" xmlns="http://www.w3.org/2000/svg">
<path d="M49 17.1818V22.8636H34.625V17.1818H49ZM37.4091 11.9545H45.25V31.983C45.25 32.286 45.3021 32.5417 45.4062 32.75C45.5104 32.9489 45.6714 33.1004 45.8892 33.2045C46.107 33.2992 46.3864 33.3466 46.7273 33.3466C46.964 33.3466 47.2386 33.3182 47.5511 33.2614C47.8731 33.2045 48.1098 33.1572 48.2614 33.1193L49.3977 38.6307C49.0473 38.7348 48.5455 38.8627 47.892 39.0142C47.2481 39.1657 46.4811 39.2652 45.5909 39.3125C43.7917 39.4072 42.2813 39.2225 41.0597 38.7585C39.8381 38.285 38.9195 37.5417 38.304 36.5284C37.6884 35.5152 37.3902 34.2462 37.4091 32.7216V11.9545ZM58.2791 39.3409C56.8871 39.3409 55.656 39.1136 54.5859 38.6591C53.5253 38.1951 52.692 37.4943 52.0859 36.5568C51.4799 35.6193 51.1768 34.4261 51.1768 32.9773C51.1768 31.7841 51.3804 30.7661 51.7876 29.9233C52.1948 29.071 52.763 28.375 53.4922 27.8352C54.2214 27.2955 55.0689 26.8835 56.0348 26.5994C57.0102 26.3153 58.0613 26.1307 59.1882 26.0455C60.4098 25.9508 61.3899 25.8371 62.1286 25.7045C62.8767 25.5625 63.4164 25.3684 63.7479 25.1222C64.0793 24.8665 64.245 24.5303 64.245 24.1136V24.0568C64.245 23.4886 64.0272 23.053 63.5916 22.75C63.156 22.447 62.5973 22.2955 61.9155 22.2955C61.1674 22.2955 60.5566 22.4612 60.0831 22.7926C59.6191 23.1146 59.3397 23.6117 59.245 24.2841H52.0291C52.1238 22.9583 52.5452 21.7367 53.2933 20.6193C54.0509 19.4924 55.1541 18.5928 56.603 17.9205C58.0518 17.2386 59.8606 16.8977 62.0291 16.8977C63.5916 16.8977 64.9931 17.0824 66.2337 17.4517C67.4742 17.8116 68.5301 18.3182 69.4013 18.9716C70.2725 19.6155 70.9354 20.3731 71.3899 21.2443C71.8539 22.1061 72.0859 23.0436 72.0859 24.0568V39H64.7564V35.9318H64.5859C64.1503 36.7462 63.62 37.4044 62.995 37.9062C62.3795 38.4081 61.674 38.7727 60.8786 39C60.0926 39.2273 59.2261 39.3409 58.2791 39.3409ZM60.8359 34.3977C61.4325 34.3977 61.9912 34.2746 62.5121 34.0284C63.0424 33.7822 63.4732 33.4271 63.8047 32.9631C64.1361 32.4991 64.3018 31.9356 64.3018 31.2727V29.4545C64.0935 29.5398 63.871 29.6203 63.6342 29.696C63.407 29.7718 63.1607 29.8428 62.8956 29.9091C62.6399 29.9754 62.3653 30.0369 62.0717 30.0938C61.7876 30.1506 61.4893 30.2027 61.1768 30.25C60.5708 30.3447 60.0736 30.5009 59.6854 30.7188C59.3066 30.9271 59.0225 31.1875 58.8331 31.5C58.6532 31.803 58.5632 32.1439 58.5632 32.5227C58.5632 33.1288 58.7763 33.5928 59.2024 33.9148C59.6286 34.2367 60.1731 34.3977 60.8359 34.3977ZM95.7756 24.2841H88.5597C88.5218 23.839 88.3655 23.4555 88.0909 23.1335C87.8163 22.8116 87.4612 22.5653 87.0256 22.3949C86.5994 22.215 86.1259 22.125 85.6051 22.125C84.9328 22.125 84.3551 22.2481 83.8722 22.4943C83.3892 22.7405 83.1525 23.0909 83.1619 23.5455C83.1525 23.8674 83.2898 24.1657 83.5739 24.4403C83.8674 24.715 84.4309 24.928 85.2642 25.0795L89.696 25.875C91.9309 26.2822 93.5928 26.9687 94.6818 27.9347C95.7803 28.8911 96.3343 30.1742 96.3438 31.7841C96.3343 33.3371 95.8703 34.6866 94.9517 35.8324C94.0426 36.9687 92.7973 37.8494 91.2159 38.4744C89.6439 39.09 87.8494 39.3977 85.8324 39.3977C82.4991 39.3977 79.8902 38.7159 78.0057 37.3523C76.1307 35.9886 75.0843 34.1894 74.8665 31.9545H82.6506C82.7547 32.6458 83.0956 33.1809 83.6733 33.5597C84.2604 33.929 84.9991 34.1136 85.8892 34.1136C86.6089 34.1136 87.2008 33.9905 87.6648 33.7443C88.1383 33.4981 88.3797 33.1477 88.3892 32.6932C88.3797 32.2765 88.1714 31.9451 87.7642 31.6989C87.3665 31.4527 86.7415 31.2538 85.8892 31.1023L82.0256 30.4205C79.8002 30.0322 78.1335 29.2936 77.0256 28.2045C75.9176 27.1155 75.3684 25.714 75.3778 24C75.3684 22.4848 75.7661 21.2017 76.571 20.1506C77.3854 19.09 78.5455 18.285 80.0511 17.7358C81.5663 17.1771 83.3608 16.8977 85.4347 16.8977C88.5881 16.8977 91.0739 17.5511 92.892 18.858C94.7197 20.1648 95.6809 21.9735 95.7756 24.2841Z" fill="#4EA8DE"/>
<path d="M106.393 33.8295L106.45 24.5114H107.473L112.757 17.1818H121.564L112.7 28.6023H110.484L106.393 33.8295ZM99.348 39V9.90909H107.189V39H99.348ZM112.814 39L107.814 30.3636L112.928 24.7955L121.791 39H112.814ZM129.685 39.3409C128.293 39.3409 127.062 39.1136 125.992 38.6591C124.932 38.1951 124.098 37.4943 123.492 36.5568C122.886 35.6193 122.583 34.4261 122.583 32.9773C122.583 31.7841 122.787 30.7661 123.194 29.9233C123.601 29.071 124.169 28.375 124.898 27.8352C125.628 27.2955 126.475 26.8835 127.441 26.5994C128.416 26.3153 129.468 26.1307 130.594 26.0455C131.816 25.9508 132.796 25.8371 133.535 25.7045C134.283 25.5625 134.823 25.3684 135.154 25.1222C135.486 24.8665 135.651 24.5303 135.651 24.1136V24.0568C135.651 23.4886 135.433 23.053 134.998 22.75C134.562 22.447 134.004 22.2955 133.322 22.2955C132.574 22.2955 131.963 22.4612 131.489 22.7926C131.025 23.1146 130.746 23.6117 130.651 24.2841H123.435C123.53 22.9583 123.951 21.7367 124.7 20.6193C125.457 19.4924 126.56 18.5928 128.009 17.9205C129.458 17.2386 131.267 16.8977 133.435 16.8977C134.998 16.8977 136.399 17.0824 137.64 17.4517C138.88 17.8116 139.936 18.3182 140.808 18.9716C141.679 19.6155 142.342 20.3731 142.796 21.2443C143.26 22.1061 143.492 23.0436 143.492 24.0568V39H136.163V35.9318H135.992C135.557 36.7462 135.026 37.4044 134.401 37.9062C133.786 38.4081 133.08 38.7727 132.285 39C131.499 39.2273 130.632 39.3409 129.685 39.3409ZM132.242 34.3977C132.839 34.3977 133.397 34.2746 133.918 34.0284C134.449 33.7822 134.879 33.4271 135.211 32.9631C135.542 32.4991 135.708 31.9356 135.708 31.2727V29.4545C135.5 29.5398 135.277 29.6203 135.04 29.696C134.813 29.7718 134.567 29.8428 134.302 29.9091C134.046 29.9754 133.772 30.0369 133.478 30.0938C133.194 30.1506 132.896 30.2027 132.583 30.25C131.977 30.3447 131.48 30.5009 131.092 30.7188C130.713 30.9271 130.429 31.1875 130.239 31.5C130.059 31.803 129.969 32.1439 129.969 32.5227C129.969 33.1288 130.183 33.5928 130.609 33.9148C131.035 34.2367 131.579 34.3977 132.242 34.3977Z" fill="#5E60CE"/>
<g clip-path="url(#clip0_43_109)">
<path d="M11.0215 12.933C14.1472 16.9011 15.8158 21.7944 15.7553 26.8155V28.0141L16.7865 28.6416C18.119 29.4482 19.1127 30.6993 19.5866 32.1669C19.1705 31.8605 18.7352 31.5803 18.2833 31.3278L15.5333 29.7838L15.0391 32.9001C14.9963 33.1755 14.9389 33.4485 14.8672 33.718H7.16151C7.04692 33.3655 6.95382 33.0129 6.86789 32.6463L6.24484 29.8261L3.70968 31.2362C3.28615 31.473 2.87723 31.7344 2.48507 32.0188C2.96824 30.5682 3.94123 29.3242 5.24224 28.4935L6.22336 27.866V26.7521C6.24106 21.7513 7.92967 16.8952 11.0287 12.933H11.0215ZM11.0287 10C10.868 10.0004 10.7128 10.058 10.5918 10.1622L10.5274 10.2186C6.39778 14.7656 4.10466 20.6454 4.08208 26.745C2.32967 27.8643 1.03251 29.5543 0.417263 31.5197C-0.197979 33.485 -0.0921719 35.6007 0.716194 37.4971C1.56776 35.6455 2.99131 34.1058 4.7839 33.0975C4.96368 33.8642 5.2031 34.6161 5.50005 35.3467C5.53771 35.4871 5.62118 35.6114 5.73763 35.7006C5.85408 35.7898 5.99706 35.8388 6.14458 35.8402H16.0847C16.2852 35.8402 16.4857 35.6498 16.586 35.3537C16.8758 34.6592 17.0778 33.9322 17.1875 33.1892C18.9836 34.1932 20.4083 35.7342 21.2553 37.5887C22.1124 35.7017 22.2451 33.5727 21.6287 31.5967C21.0124 29.6206 19.6888 27.9319 17.9037 26.8437C17.9745 20.7082 15.6935 14.7718 11.5157 10.2186C11.4535 10.1501 11.3773 10.0952 11.2922 10.0576C11.2071 10.0199 11.1149 10.0003 11.0215 10H11.0287Z" fill="#4EA8DE"/>
<path d="M11.0216 26.1598C10.4715 26.1598 9.93376 25.9995 9.47611 25.699C9.01846 25.3986 8.6614 24.9715 8.44993 24.4716C8.23847 23.9716 8.18206 23.4213 8.28782 22.8898C8.39358 22.3584 8.65678 21.8697 9.04423 21.4853C9.43169 21.1009 9.92606 20.838 10.465 20.7298C11.004 20.6216 11.5634 20.6729 12.0728 20.8773C12.5822 21.0816 13.0188 21.4298 13.3275 21.8781C13.6361 22.3263 13.8031 22.8545 13.8074 23.396V23.396C13.8159 23.7469 13.7542 24.0961 13.6256 24.4235C13.4971 24.751 13.3043 25.0503 13.0582 25.3043C12.8121 25.5583 12.5176 25.7622 12.1915 25.9041C11.8654 26.0461 11.5141 26.1234 11.1576 26.1316C11.1126 26.1387 11.0666 26.1387 11.0216 26.1316V26.1598Z" fill="#4EA8DE"/>
<path d="M14.8959 37.5958C14.7167 37.5901 14.5382 37.6198 14.3708 37.683C14.2034 37.7462 14.0505 37.8416 13.9211 37.9638C13.7917 38.086 13.6884 38.2323 13.6172 38.3943C13.546 38.5563 13.5084 38.7307 13.5066 38.9072V43.067C13.5066 43.4297 13.653 43.7776 13.9135 44.0342C14.1741 44.2907 14.5274 44.4348 14.8959 44.4348C15.2644 44.4348 15.6178 44.2907 15.8783 44.0342C16.1389 43.7776 16.2852 43.4297 16.2852 43.067V38.9636C16.291 38.7877 16.2611 38.6126 16.1973 38.4482C16.1336 38.2839 16.0372 38.1337 15.9139 38.0064C15.7906 37.879 15.6428 37.7772 15.4791 37.7067C15.3154 37.6362 15.139 37.5985 14.9604 37.5958H14.8959Z" fill="#5E60CE"/>
<path d="M7.16154 37.5958C6.97931 37.5863 6.797 37.613 6.62546 37.6743C6.45392 37.7356 6.29665 37.8302 6.16302 37.9526C6.02939 38.0749 5.92213 38.2225 5.84761 38.3865C5.77309 38.5505 5.73284 38.7275 5.72925 38.9072V43.067C5.72925 43.4297 5.87562 43.7777 6.13617 44.0342C6.39672 44.2907 6.7501 44.4348 7.11857 44.4348C7.48704 44.4348 7.84042 44.2907 8.10097 44.0342C8.36152 43.7777 8.50789 43.4297 8.50789 43.067V38.9636C8.51362 38.7877 8.48373 38.6126 8.41998 38.4482C8.35623 38.2839 8.25989 38.1337 8.13658 38.0064C8.01326 37.879 7.86544 37.7772 7.70173 37.7067C7.53802 37.6362 7.36169 37.5985 7.18302 37.5958H7.16154Z" fill="#5E60CE"/>
<path d="M10.9213 37.5958C10.7426 37.592 10.5649 37.623 10.3984 37.6869C10.2318 37.7507 10.0797 37.8463 9.95068 37.9681C9.82167 38.0899 9.71828 38.2355 9.64644 38.3966C9.5746 38.5577 9.5357 38.7312 9.53198 38.9072V44.6392C9.53198 45.002 9.67836 45.3499 9.93891 45.6064C10.1995 45.8629 10.5528 46.007 10.9213 46.007C11.2898 46.007 11.6432 45.8629 11.9037 45.6064C12.1643 45.3499 12.3106 45.002 12.3106 44.6392V38.9988C12.3164 38.823 12.2865 38.6478 12.2227 38.4835C12.159 38.3191 12.0626 38.1689 11.9393 38.0416C11.816 37.9143 11.6682 37.8124 11.5045 37.7419C11.3408 37.6714 11.1644 37.6337 10.9858 37.631L10.9213 37.5958Z" fill="#5E60CE"/>
</g>
<defs>
<clipPath id="clip0_43_109">
<rect width="22" height="36" fill="white" transform="translate(0 10)"/>
</clipPath>
</defs>
</svg>
